<svg width="176" height="52" viewBox="0 0 176 52" fill="none" xmlns="http://www.w3.org/2000/svg">
<g clip-path="url(#clip0_204_16607)">
<path d="M50.4475 0.0155029H0V3.4167H50.4475V0.0155029Z" fill="#C7C8CA"/>
<path d="M50.4475 7.2262H0V10.6274H50.4475V7.2262Z" fill="#C7C8CA"/>
<path d="M50.4475 14.4421H0V17.8433H50.4475V14.4421Z" fill="#C7C8CA"/>
<path d="M50.4475 21.6528H0V25.054H50.4475V21.6528Z" fill="#C7C8CA"/>
<path d="M50.4475 28.8688H0V32.27H50.4475V28.8688Z" fill="#C7C8CA"/>
<path d="M50.4475 36.0847H0V39.4859H50.4475V36.0847Z" fill="#C7C8CA"/>
<path d="M50.4475 43.2954H0V46.6966H50.4475V43.2954Z" fill="#C7C8CA"/>
<path d="M90.5514 6.90063C89.7033 5.48433 88.6445 4.25411 87.4119 3.24616C86.1688 2.23304 84.6412 1.43185 82.8607 0.863259C81.0908 0.299839 79.0944 0.010376 76.9347 0.010376C74.2693 0.010376 71.8252 0.496261 69.6655 1.44735C67.5005 2.40362 65.699 3.72688 64.3189 5.38612C62.944 7.02986 61.8747 8.96306 61.1425 11.1289C60.4156 13.2895 60.0469 15.6362 60.0469 18.107C60.0469 20.5778 60.3682 22.6557 61.0003 24.6303C61.6377 26.6151 62.6016 28.4036 63.8606 29.9388C65.1248 31.4895 66.8262 32.7197 68.9122 33.5933C70.9876 34.4617 73.4054 34.9062 76.1024 34.9062C78.7994 34.9062 81.212 34.4203 83.3717 33.4641C85.5366 32.5078 87.3381 31.1794 88.7235 29.5149C90.0984 27.8609 91.1677 25.9277 91.8999 23.7567C92.6268 21.5961 92.9955 19.2493 92.9955 16.7786C92.9955 14.9177 92.8006 13.1396 92.4161 11.5062C92.0263 9.86246 91.4047 8.3066 90.5619 6.89546L90.5514 6.90063ZM76.5028 31.9702C74.9594 31.9702 73.5635 31.6497 72.3519 31.014C71.1351 30.3782 70.1395 29.5511 69.3968 28.5587C68.6436 27.5507 68.0062 26.3464 67.5005 24.9714C66.9948 23.5861 66.6419 22.206 66.4522 20.8672C66.2626 19.5181 66.1625 18.1122 66.1625 16.6907C66.1625 14.835 66.3732 13.0724 66.7894 11.4545C67.2002 9.84179 67.8218 8.37896 68.6383 7.09189C69.439 5.82548 70.5293 4.81236 71.862 4.0732C73.2 3.33403 74.7592 2.9567 76.5028 2.9567C78.0462 2.9567 79.4421 3.27717 80.6536 3.90262C81.8704 4.53324 82.8713 5.36028 83.6192 6.35789C84.383 7.37101 85.0204 8.58055 85.5156 9.94517C86.016 11.3201 86.3689 12.7002 86.5638 14.039C86.764 15.3881 86.8641 16.7941 86.8641 18.2155C86.8641 19.637 86.7324 21.0998 86.4743 22.4386C86.2162 23.767 85.8106 25.0386 85.268 26.2068C84.7254 27.375 84.0512 28.3933 83.2558 29.2462C82.4709 30.0887 81.4912 30.7607 80.3428 31.2414C79.1892 31.7273 77.8934 31.9754 76.4922 31.9754L76.5028 31.9702Z" fill="#006542"/>
<path d="M175.991 14.2975C175.991 11.3201 173.563 9.81079 168.78 9.81079C167.7 9.81079 166.62 9.89349 165.572 10.0641C164.519 10.2346 163.497 10.4931 162.533 10.8394C161.532 11.2012 160.715 11.7181 160.104 12.3798C159.472 13.0673 159.146 13.8788 159.146 14.7937C159.146 15.4915 159.362 16.0343 159.788 16.4012C160.199 16.7579 160.752 16.9388 161.432 16.9388C162.111 16.9388 162.706 16.7321 163.128 16.3289C163.518 15.9567 163.818 15.5018 164.023 14.9849C164.202 14.5249 164.413 14.0494 164.645 13.579C164.85 13.1603 165.209 12.7933 165.704 12.4883C166.204 12.1834 166.884 12.0283 167.726 12.0283C170.207 12.0283 171.408 13.3826 171.408 16.1686C171.408 16.6028 171.393 16.9802 171.361 17.2903C171.282 18.2466 170.987 18.9392 170.471 19.3424C170.313 19.4716 169.77 19.8179 167.927 20.6657C167.605 20.8156 166.984 21.0895 166.067 21.4979C165.151 21.9011 164.429 22.2319 163.913 22.4748C163.397 22.7178 162.733 23.0899 161.948 23.581C161.147 24.0772 160.52 24.5527 160.078 25.0024C159.63 25.4573 159.23 26.0259 158.887 26.6979C158.535 27.3853 158.355 28.1193 158.355 28.8844C158.355 30.7814 159.009 32.2804 160.299 33.34C161.569 34.3842 163.207 34.9166 165.161 34.9166C166.051 34.9166 166.842 34.8287 167.511 34.6529C168.201 34.4772 168.817 34.1722 169.338 33.7535C169.839 33.3504 170.229 32.9782 170.492 32.6577L170.555 32.5853C170.776 32.3166 171.119 31.903 171.445 31.4585L172.636 34.0947H175.991L175.975 14.3026L175.991 14.2975ZM171.419 21.441V26.0362C171.419 27.5146 171.029 28.7965 170.265 29.8354C169.517 30.8537 168.48 31.35 167.1 31.35C165.972 31.35 165.066 31.0657 164.408 30.5074C163.755 29.9595 163.439 29.1635 163.439 28.078C163.439 27.6231 163.481 27.2148 163.57 26.8633C163.649 26.5325 163.813 26.2068 164.055 25.8967C164.313 25.5659 164.566 25.2712 164.814 25.0335C165.045 24.806 165.43 24.5321 165.951 24.2271C166.499 23.9066 166.968 23.643 167.342 23.4517C167.732 23.2553 168.332 22.9555 169.138 22.5575L171.419 21.441Z" fill="#006542"/>
<path d="M129.857 14.2975C129.857 11.3201 127.429 9.81079 122.646 9.81079C121.566 9.81079 120.486 9.89349 119.438 10.0641C118.39 10.2346 117.362 10.4931 116.398 10.8394C115.398 11.2012 114.581 11.7181 113.97 12.3798C113.333 13.0673 113.011 13.8788 113.011 14.7937C113.011 15.4915 113.227 16.0343 113.654 16.4012C114.065 16.7579 114.618 16.9388 115.298 16.9388C115.977 16.9388 116.572 16.7321 116.994 16.3289C117.384 15.9567 117.684 15.5018 117.889 14.9849C118.068 14.5249 118.279 14.0494 118.511 13.579C118.716 13.1603 119.074 12.7933 119.57 12.4883C120.07 12.1834 120.749 12.0283 121.592 12.0283C124.068 12.0283 125.274 13.3826 125.274 16.1686C125.274 16.6028 125.259 16.9802 125.227 17.2903C125.148 18.2466 124.853 18.9392 124.337 19.3424C124.179 19.4716 123.636 19.8179 121.798 20.6657C121.476 20.8156 120.855 21.0895 119.938 21.4979C119.022 21.9011 118.3 22.2319 117.784 22.4748C117.268 22.7178 116.604 23.0899 115.819 23.581C115.018 24.0772 114.392 24.5527 113.949 25.0024C113.501 25.4573 113.101 26.0259 112.759 26.6979C112.406 27.3853 112.227 28.1193 112.227 28.8844C112.227 30.7814 112.88 32.2804 114.17 33.34C115.44 34.3842 117.078 34.9166 119.032 34.9166C119.922 34.9166 120.713 34.8287 121.382 34.6529C122.072 34.4772 122.683 34.1722 123.204 33.7535C123.705 33.3504 124.094 32.9782 124.358 32.6577L124.416 32.5853C124.637 32.3166 124.979 31.903 125.306 31.4585L126.496 34.0947H129.857L129.841 14.3026L129.857 14.2975ZM125.285 21.441V26.0362C125.285 27.5146 124.895 28.7965 124.131 29.8354C123.383 30.8537 122.346 31.35 120.965 31.35C119.838 31.35 118.932 31.0657 118.274 30.5074C117.621 29.9595 117.304 29.1635 117.304 28.078C117.304 27.6231 117.347 27.2148 117.436 26.8633C117.515 26.5325 117.678 26.2068 117.921 25.8967C118.179 25.5659 118.432 25.2712 118.674 25.0335C118.906 24.806 119.29 24.5321 119.812 24.2271C120.36 23.9066 120.828 23.643 121.202 23.4517C121.592 23.2553 122.193 22.9555 122.999 22.5575L125.28 21.441H125.285Z" fill="#006542"/>
<path d="M140.851 0H136.305V34.0895H140.856L140.851 0Z" fill="#006542"/>
<path d="M152.897 9.81079H148.357L148.352 34.0895H152.903L152.897 9.81079Z" fill="#006542"/>
<path d="M150.63 0C148.986 0 147.648 1.31292 147.648 2.92565C147.648 4.53837 148.986 5.85129 150.63 5.85129C152.273 5.85129 153.611 4.53837 153.611 2.92565C153.611 1.31292 152.273 0 150.63 0Z" fill="#006542"/>
<path d="M109.72 10.3845C109.162 10.002 108.382 9.81071 107.397 9.81071C106.781 9.81071 106.175 9.92443 105.59 10.1467C105.016 10.369 104.521 10.6481 104.121 10.9789C103.741 11.2942 103.399 11.6095 103.099 11.9145C102.898 12.1212 102.725 12.3073 102.577 12.4727L101.381 9.80554H98.0312C98.0312 9.80554 98.0312 33.1797 98.0312 33.9654L98.0471 34.0843H102.603V33.9654C102.603 33.7173 102.603 33.4588 102.603 33.1694V17.6572C102.603 17.0421 102.635 16.5252 102.698 16.1117C102.762 15.7137 102.877 15.326 103.051 14.959C103.204 14.6334 103.441 14.3956 103.778 14.2302C104.131 14.0544 104.6 13.9666 105.169 13.9666C105.595 13.9666 106.175 13.9924 106.886 14.0389C107.623 14.0906 108.134 14.1165 108.445 14.1165C109.857 14.1165 110.631 13.398 110.631 12.0954C110.631 11.3614 110.326 10.7876 109.731 10.3793L109.72 10.3845Z" fill="#006542"/>
<path d="M12.7224 13.2947C12.7224 13.2947 14.0814 11.3201 15.983 10.1984C17.9426 9.13363 16.1463 4.17141 25.9282 2.19685C25.9282 2.19685 30.1686 1.76783 31.9069 7.05053C31.9069 7.05053 33.6452 6.35789 36.7425 6.35789L25.9229 12.6537C25.9229 12.6537 36.5792 7.69149 39.2973 7.26763C39.2973 7.26763 41.4149 7.80003 39.0234 12.0696C39.0234 12.0696 41.7415 12.0696 42.284 12.2815C42.8266 12.5503 32.4442 18.5774 32.4442 18.5774C32.4442 18.5774 42.4473 13.7754 44.6228 13.672C44.6228 13.672 48.0994 14.7368 40.8196 21.4617C40.8196 21.4617 42.7792 22.1026 41.9627 24.0203C41.9627 24.0203 25.491 32.8748 25.0011 34.4203C25.0011 34.4203 39.134 27.0597 41.9627 26.6307C41.9627 26.6307 40.8776 37.6716 30.5479 33.0299C30.5479 33.0299 21.8511 39.8064 18.206 37.4028C18.206 37.4028 16.9575 35.5368 18.4219 34.0947L17.7687 33.614L28.9676 25.8811C28.9676 25.8811 16.8469 31.7479 16.4097 32.4406C15.9198 33.1849 15.214 30.9468 15.214 30.9468C15.214 30.9468 10.5943 31.2672 11.5161 28.6C11.5161 28.6 9.61455 28.6517 9.12467 28.3312L22.0618 19.4251C22.0618 19.4251 15.8672 21.7201 6.94916 27.6386C6.94916 27.6386 2.81939 21.8752 12.3853 18.0346C12.3853 18.0346 11.3002 16.3806 11.7321 15.8998C16.4466 12.907 21.2137 9.99168 26.0283 7.15391C26.0283 7.15391 16.4044 11.3666 12.7119 13.3412V13.2895L12.7224 13.2947Z" fill="#006542"/>
<path d="M25.3872 37.1909C25.3872 37.1909 28.7585 35.9659 29.4116 35.0562V37.8319C29.4116 37.8319 25.8244 40.4991 25.2819 40.4991C24.7393 40.4991 25.3925 37.1909 25.3925 37.1909H25.3872Z" fill="#006542"/>
<path d="M29.4098 39.1654L29.847 45.1924C29.847 45.1924 22.2354 50.3666 21.1502 51.8088C20.0651 53.194 24.4109 46.8465 24.6268 42.0497C24.6268 42.0497 28.1034 40.6076 29.4098 39.1706V39.1654Z" fill="#006542"/>
<path d="M88.6572 43.3005H62.1719V46.7017H88.6572V43.3005Z" fill="#00ABE6"/>
<path d="M117.77 43.3005H91.2852V46.7017H117.77V43.3005Z" fill="#80C342"/>
<path d="M146.888 43.3005H120.402V46.7017H146.888V43.3005Z" fill="#F8971D"/>
<path d="M176.001 43.3005H149.516V46.7017H176.001V43.3005Z" fill="#F05B7C"/>
</g>
<defs>
<clipPath id="clip0_204_16607">
<rect width="176" height="52" fill="white"/>
</clipPath>
</defs>
</svg>
